<?xml version="1.0" standalone="no"?>
<!DOCTYPE svg PUBLIC "-//W3C//DTD SVG 20010904//EN"
 "http://www.w3.org/TR/2001/REC-SVG-20010904/DTD/svg10.dtd">
<svg version="1.0" xmlns="http://www.w3.org/2000/svg"
 width="1024.000000pt" height="1024.000000pt" viewBox="0 0 1024.000000 1024.000000"
 preserveAspectRatio="xMidYMid meet">
<metadata>
Created by potrace 1.11, written by Peter Selinger 2001-2013
</metadata>
<g transform="translate(0.000000,1024.000000) scale(0.100000,-0.100000)"
fill="#000000" stroke="none">
<path d="M1939 7021 l-29 -29 0 -535 c0 -293 3 -1211 7 -2038 l6 -1504 28 -27
27 -28 3027 0 3027 0 34 34 34 34 0 2032 0 2032 -29 29 -29 29 -3037 0 -3037
0 -29 -29z m5741 -165 c0 -3 -28 -21 -62 -42 -35 -20 -74 -47 -88 -59 -14 -12
-54 -39 -90 -60 -36 -21 -76 -48 -90 -60 -14 -12 -61 -44 -105 -70 -44 -27
-98 -63 -121 -80 -23 -16 -68 -47 -100 -68 -32 -21 -97 -63 -144 -95 -47 -31
-122 -80 -165 -108 -44 -29 -93 -63 -110 -76 -16 -13 -59 -42 -95 -63 -36 -21
-76 -48 -90 -60 -14 -12 -61 -44 -105 -70 -44 -27 -98 -63 -121 -80 -23 -16
-68 -47 -100 -68 -32 -21 -97 -63 -144 -95 -47 -31 -122 -80 -165 -108 -44
-29 -93 -63 -110 -76 -16 -13 -59 -42 -95 -63 -36 -21 -76 -48 -90 -60 -14
-12 -61 -43 -105 -70 -44 -27 -91 -58 -105 -69 -14 -12 -57 -41 -95 -64 -39
-24 -94 -61 -123 -82 l-53 -38 -67 41 c-37 22 -78 50 -92 62 -14 12 -54 39
-90 60 -36 21 -78 50 -95 63 -28 23 -92 65 -264 175 -42 27 -85 57 -96 66 -11
10 -56 40 -100 66 -44 27 -91 58 -105 70 -14 12 -54 39 -90 60 -36 21 -78 50
-95 63 -16 13 -66 47 -110 76 -43 28 -118 77 -165 108 -47 32 -112 74 -144 95
-32 21 -77 52 -100 68 -23 17 -77 53 -121 80 -44 26 -91 58 -105 70 -14 12
-54 39 -90 60 -36 21 -76 48 -90 60 -14 12 -59 43 -100 68 -41 26 -86 56 -100
66 -14 10 -58 41 -99 67 -41 27 -112 74 -157 104 -45 30 -111 74 -146 97 l-63
43 2678 0 c1472 0 2677 -2 2677 -4z m-5450 -169 c41 -26 86 -56 100 -66 14
-10 58 -41 99 -67 191 -126 263 -173 337 -220 43 -29 93 -63 109 -76 17 -13
59 -42 95 -63 36 -21 76 -48 90 -60 14 -12 59 -43 100 -68 41 -26 86 -56 100
-66 14 -10 58 -41 99 -67 191 -126 263 -173 337 -220 43 -29 93 -63 109 -76
17 -13 59 -42 95 -63 36 -21 76 -48 90 -60 14 -12 59 -43 100 -68 41 -26 86
-56 100 -66 29 -22 132 -90 263 -173 49 -32 99 -66 111 -76 12 -10 50 -36 86
-57 36 -21 76 -48 90 -60 14 -12 52 -38 86 -58 33 -20 77 -50 98 -67 56 -44
86 -40 197 26 52 31 103 65 114 74 11 10 54 40 96 67 172 110 236 152 264 175
17 13 59 42 95 63 36 21 79 50 95 63 17 13 66 47 109 76 74 47 146 94 337 220
41 26 85 57 99 67 14 10 59 40 100 66 41 25 86 56 100 68 14 12 54 39 90 60
36 21 76 48 90 60 14 12 61 44 105 70 44 27 98 63 121 80 23 16 68 47 100 68
32 21 97 63 144 95 47 31 122 80 165 108 44 29 94 63 110 76 17 13 59 42 95
63 36 21 76 48 90 60 14 12 61 43 105 70 44 27 96 61 115 77 19 15 38 28 42
28 5 0 8 -837 8 -1860 l0 -1860 -2900 0 -2900 0 0 508 c0 279 -3 1119 -6 1867
l-7 1360 29 -26 c16 -14 63 -47 104 -72z"/>
</g>
</svg>
